#!OML:ASF F:\VICON\USERDATA\INSTALL\rory3\rory3.ASF
:FULLY-SPECIFIED
:DEGREES
248
root 13.6556 17.9402 10.4182 -4.52388 -16.8582 4.74675
lowerback 12.4447 1.92685 -3.0469
upperback 1.06609 2.05542 -1.09314
thorax -5.92593 1.06643 0.211912
lowerneck -19.1187 -8.91577 -13.5815
upperneck 27.0919 -12.3045 12.0287
head 14.1256 -5.29927 4.81051
rclavicle -1.61513e-016 -4.77083e-015
rhumerus -31.4696 -9.41342 -83.4806
rradius 36.5076
rwrist 3.79123
rhand -14.6432 10.9767
rfingers 7.12502
rthumb 11.5089 -18.6874
lclavicle -1.61513e-016 -4.77083e-015
lhumerus -36.3774 7.11457 82.2258
lradius 30.2108
lwrist -7.36343
lhand -18.0552 27.5152
lfingers 7.12502
lthumb 8.21702 57.3354
rfemur -11.2695 -4.37639 16.8392
rtibia 58.5701
rfoot -3.19125 0.336417
rtoes 14.9419
lfemur -5.76261 -3.49941 -20.2268
ltibia 12.2096
lfoot -1.1757 -11.8021
ltoes -9.93108
249
root 13.658 17.9517 10.4799 -4.53021 -17.7708 4.80042
lowerback 12.5631 1.86014 -3.16836
upperback 0.987124 1.94562 -1.04431
thorax -6.07834 1.01798 0.345363
lowerneck -18.7734 -9.06066 -13.8274
upperneck 27.0633 -12.5742 12.2767
head 14.1275 -5.42758 4.90559
rclavicle -1.02374e-014 1.59028e-014
rhumerus -31.6645 -9.22607 -83.4458
rradius 36.6244
rwrist 4.26325
rhand -14.6453 11.5649
rfingers 7.12502
rthumb 11.5069 -18.0993
lclavicle -1.02374e-014 1.59028e-014
lhumerus -36.6807 6.32091 82.538
lradius 30.5138
lwrist -6.73367
lhand -18.6242 26.9372
lfingers 7.12502
lthumb 7.66787 56.7782
rfemur -12.1203 -5.51272 16.5012
rtibia 59.3348
rfoot -3.88916 -0.843148
rtoes 13.546
lfemur -5.32897 -3.37357 -20.3084
ltibia 12.021
lfoot -1.50933 -10.9261
ltoes -10.8783
250
root 13.66 17.9624 10.5419 -4.51432 -18.7169 4.90343
lowerback 12.6247 1.79871 -3.36469
upperback 0.986424 1.83569 -1.00092
thorax -6.11778 0.969845 0.519224
lowerneck -18.8397 -9.2986 -13.8439
upperneck 27.1265 -12.9221 12.2488
head 14.228 -5.58102 4.82218
rclavicle -2.90723e-014 -1.74931e-014
rhumerus -31.7126 -9.19616 -83.4537
rradius 36.9754
rwrist 4.73532
rhand -14.7451 11.1453
rfingers 7.12502
rthumb 11.4106 -18.5243
lclavicle -2.90723e-014 -1.74931e-014
lhumerus -36.8571 5.76896 82.79
lradius 30.9449
lwrist -6.24974
lhand -18.9079 26.5313
lfingers 7.12502
lthumb 7.39402 56.3821
rfemur -13.0203 -6.65865 16.1546
rtibia 59.9351
rfoot -4.9053 -2.08623
rtoes 11.3061
lfemur -4.99691 -3.14033 -20.4283
ltibia 11.9125
lfoot -1.8579 -10.1536
ltoes -12.1368
251
root 13.6617 17.9758 10.5985 -4.49212 -19.602 4.98778
lowerback 12.7229 1.73562 -3.54929
upperback 1.06563 1.72462 -0.961227
thorax -6.09137 0.91913 0.683734
lowerneck -18.9407 -9.42055 -13.599
upperneck 26.963 -13.1208 12.1465
head 14.1819 -5.65121 4.68624
rclavicle -3.15571e-015 -1.39149e-015
rhumerus -31.4925 -9.59102 -83.4259
rradius 37.2509
rwrist 5.49894
rhand -14.7781 10.8555
rfingers 7.12502
rthumb 11.3788 -18.8158
lclavicle -3.15571e-015 -1.39149e-015
lhumerus -36.8195 5.1573 83.089
lradius 31.3326
lwrist -5.9329
lhand -19.576 25.8542
lfingers 7.12502
lthumb 6.74916 55.7266
rfemur -13.9076 -7.90482 15.8507
rtibia 60.3759
rfoot -5.90682 -3.26633
rtoes 10.5581
lfemur -4.72029 -2.86119 -20.5338
ltibia 11.9044
lfoot -2.48382 -9.58837
ltoes -15.5471
252
root 13.6642 17.9912 10.653 -4.51681 -20.5967 5.25025
lowerback 12.8429 1.69831 -3.8534
upperback 1.06859 1.62319 -0.984258
thorax -6.15919 0.877276 0.845812
lowerneck -18.7354 -9.35466 -13.3088
upperneck 26.7832 -13.0826 12.0133
head 14.016 -5.63293 4.58992
rclavicle -5.04416e-015 5.1684e-015
rhumerus -31.1888 -9.75722 -83.434
rradius 37.0164
rwrist 5.97573
rhand -14.8918 10.9366
rfingers 7.12502
rthumb 11.2691 -18.7407
lclavicle -5.04416e-015 5.1684e-015
lhumerus -36.8988 4.49351 83.3323
lradius 31.7252
lwrist -5.56446
lhand -20.0327 25.7074
lfingers 7.12502
lthumb 6.30828 55.5935
rfemur -14.8261 -9.03425 15.3923
rtibia 60.6918
rfoot -6.57644 -4.3019
rtoes 11.1914
lfemur -4.50688 -2.49925 -20.8324
ltibia 12.0421
lfoot -3.25742 -8.98007
ltoes -19.2861
253
root 13.6679 17.9988 10.708 -4.58988 -21.7987 5.51378
lowerback 12.934 1.70281 -4.11582
upperback 1.07564 1.58399 -1.00673
thorax -6.20753 0.86463 0.974722
lowerneck -18.4324 -9.37094 -13.3679
upperneck 26.5701 -13.1568 12.1689
head 13.8921 -5.66878 4.64932
rclavicle -1.1455e-014 -4.57205e-015
rhumerus -30.8521 -9.60487 -83.4679
rradius 36.5571
rwrist 6.09212
rhand -15.0706 11.111
rfingers 7.12502
rthumb 11.0967 -18.5756
lclavicle -1.1455e-014 -4.57205e-015
lhumerus -36.9493 3.9217 83.505
lradius 32.0502
lwrist -5.08686
lhand -19.8986 26.482
lfingers 7.12502
lthumb 6.43775 56.3642
rfemur -15.7523 -9.88248 14.9958
rtibia 60.9168
rfoot -7.0417 -5.08953
rtoes 11.9677
lfemur -4.26257 -2.14057 -21.1135
ltibia 12.1921
lfoot -3.73276 -8.096
ltoes -21.5808
